<mxfile host="65bd71144e">
    <diagram id="XZ8Zbq6sAlP25PIhn3Mi" name="第 1 页">
        <mxGraphModel dx="895" dy="860" grid="0" gridSize="10" guides="1" tooltips="1" connect="1" arrows="1" fold="1" page="1" pageScale="1" pageWidth="10000" pageHeight="5000" math="0" shadow="0">
            <root>
                <mxCell id="0"/>
                <mxCell id="1" parent="0"/>
                <mxCell id="2" value="" style="endArrow=none;html=1;strokeWidth=3;fillColor=#f5f5f5;strokeColor=#E6E6E6;startArrow=none;" edge="1" parent="1" source="3">
                    <mxGeometry width="50" height="50" relative="1" as="geometry">
                        <mxPoint x="73" y="434" as="sourcePoint"/>
                        <mxPoint x="899" y="434" as="targetPoint"/>
                    </mxGeometry>
                </mxCell>
                <mxCell id="3" value="" style="verticalLabelPosition=bottom;verticalAlign=top;html=1;shape=mxgraph.flowchart.on-page_reference;fillColor=#3399FF;" vertex="1" parent="1">
                    <mxGeometry x="133" y="425" width="15" height="15" as="geometry"/>
                </mxCell>
                <mxCell id="5" value="" style="endArrow=none;html=1;strokeWidth=3;fillColor=#f5f5f5;strokeColor=#E6E6E6;" edge="1" parent="1" target="3">
                    <mxGeometry width="50" height="50" relative="1" as="geometry">
                        <mxPoint x="73" y="434" as="sourcePoint"/>
                        <mxPoint x="899" y="434" as="targetPoint"/>
                    </mxGeometry>
                </mxCell>
                <mxCell id="6" value="需求阶段" style="text;html=1;align=center;verticalAlign=middle;resizable=0;points=[];autosize=1;strokeColor=none;fillColor=none;" vertex="1" parent="1">
                    <mxGeometry x="111.5" y="460" width="58" height="18" as="geometry"/>
                </mxCell>
                <mxCell id="7" value="Text" style="text;html=1;align=center;verticalAlign=middle;resizable=0;points=[];autosize=1;strokeColor=none;fillColor=none;" vertex="1" parent="1">
                    <mxGeometry x="90" y="363" width="40" height="20" as="geometry"/>
                </mxCell>
            </root>
        </mxGraphModel>
    </diagram>
</mxfile>